<?xml version="1.0" encoding="utf-8"?>
<!-- Generator: Adobe Illustrator 25.2.2, SVG Export Plug-In . SVG Version: 6.00 Build 0)  -->
<svg version="1.1" id="Layer_1" xmlns="http://www.w3.org/2000/svg" xmlns:xlink="http://www.w3.org/1999/xlink" x="0px" y="0px"
	 width="21.8px" height="30px" viewBox="0 0 21.8 30" style="enable-background:new 0 0 21.8 30;" xml:space="preserve">
<g id="AMD_Logo">
	<path d="M4.3,0.5L7,6.7H5.4L4.9,5.5H2.1L1.6,6.7H0l2.5-6.2H4.3z M9.1,0.5l2,2.3l2-2.3h1.3v6.2h-1.5V2.8l-1.7,1.9H11L9.3,2.8v3.9
		H7.8V0.5H9.1z M18.4,0.5c2.3,0,3.4,1.4,3.4,3.1c0,1.8-1.1,3.1-3.6,3.1h-2.6V0.5H18.4z M18.2,1.6h-1v3.9h1c1.6,0,2-1.1,2-2
		C20.2,2.5,19.6,1.6,18.2,1.6z M3.4,2L2.5,4.4h1.9L3.4,2z"/>
</g>
</svg>
