<?xml version="1.0" encoding="utf-8"?>
<!-- Generator: Adobe Illustrator 25.2.1, SVG Export Plug-In . SVG Version: 6.00 Build 0)  -->
<svg version="1.1" id="Layer_1" xmlns="http://www.w3.org/2000/svg" xmlns:xlink="http://www.w3.org/1999/xlink" x="0px" y="0px"
	 width="77px" height="45px" viewBox="0 0 77 45" style="enable-background:new 0 0 77 45;" xml:space="preserve">
<style type="text/css">
	.st0{fill-rule:evenodd;clip-rule:evenodd;fill:#222222;}
	.st1{fill-rule:evenodd;clip-rule:evenodd;fill:#373737;}
	.st2{fill-rule:evenodd;clip-rule:evenodd;fill:#B22835;}
	.st3{fill-rule:evenodd;clip-rule:evenodd;fill:#808080;}
	.st4{fill-rule:evenodd;clip-rule:evenodd;fill:#333333;}
	.st5{fill-rule:evenodd;clip-rule:evenodd;fill:#D5A978;}
</style>
<g>
	<g>
		<g>
			<g>
				<g>
					<g>
						<path class="st0" d="M77,2v36H4V2H77z"/>
						
							<g transform="translate(-1098 -149) translate(281 69) translate(20 60) translate(797 20) rotate(90 38.5 38.5) translate(9 4)">
							<circle class="st1" cx="13" cy="13" r="13"/>
							<circle class="st0" cx="13" cy="13" r="11"/>
							<circle class="st2" cx="13" cy="13" r="3"/>
						</g>
						<path class="st2" d="M77,2v4H4V2H77z"/>
						<path class="st3" d="M4,0v45H3V0H4z"/>
						<path class="st3" d="M4,0v1H0V0H4z"/>
						<path class="st4" d="M45,38v2H16v-2H45z M15,38v2h-3v-2H15z"/>
						<path class="st5" d="M45,40v1H16v-1H45z M15,40v1h-3v-1H15z"/>
					</g>
				</g>
			</g>
		</g>
	</g>
</g>
</svg>
