<svg xmlns="http://www.w3.org/2000/svg" xmlns:xlink="http://www.w3.org/1999/xlink" width="122" height="31" viewBox="0 0 122 31">
    <defs>
        <path id="l6o13qrksa" d="M0 30.865L121.897 30.865 121.897 0 0 0z"/>
    </defs>
    <g fill="none" fill-rule="evenodd">
        <g>
            <g transform="translate(-30 -13) translate(30 13)">
                <path fill="#FFF" d="M0 27.414h2.892l1.477-18.11H1.412v-2.53h6.572l5.947 14.131c.362.954.526 1.677.526 1.677h.065s.165-.723.527-1.677l5.947-14.131h6.57v2.53H24.61l1.478 18.11h2.892v2.562h-8.938v-2.562h2.794l-1.052-13.87c-.032-.723.099-1.907.099-1.907h-.1s-.26 1.118-.524 1.774l-5.324 12.194h-2.89L7.72 13.411c-.263-.656-.525-1.774-.525-1.774h-.099s.131 1.184.099 1.908L6.144 27.414h2.793v2.562H0v-2.562zM66.01 17.915c2.53 0 4.205-1.644 4.205-4.37 0-1.808-.722-3.058-2.168-3.65-.755-.295-1.74-.426-2.858-.426h-3.845v8.446h4.666zm-10.843 9.5h2.892V9.304h-2.892V6.774h10.055c1.642 0 2.99.065 4.27.492 2.432.822 4.043 2.86 4.043 6.015 0 3.352-1.84 5.751-4.797 6.508v.064s.592.33.985 1.085l3.286 5.719c.36.624.788.757 1.61.757h.69v2.563h-1.972c-1.97 0-2.43-.362-3.22-1.742l-3.58-6.343c-.593-.986-1.02-1.281-2.432-1.281h-2.76v6.803h2.859v2.563h-9.037v-2.563zM77.41 27.414L80.302 27.414 80.302 9.303 77.41 9.303 77.41 6.774 94.199 6.774 94.199 12.163 91.341 12.163 91.341 9.469 83.588 9.469 83.588 16.929 91.801 16.929 91.801 19.624 83.588 19.624 83.588 27.281 91.9 27.281 91.9 24.488 94.76 24.488 94.76 29.976 77.41 29.976zM97.518 27.414L100.409 27.414 100.409 9.303 97.518 9.303 97.518 6.774 106.619 6.774 106.619 9.303 103.695 9.303 103.695 17.028 115.72 17.028 115.72 9.303 112.796 9.303 112.796 6.774 121.897 6.774 121.897 9.303 119.006 9.303 119.006 27.414 121.897 27.414 121.897 29.976 112.796 29.976 112.796 27.414 115.72 27.414 115.72 19.723 103.695 19.723 103.695 27.414 106.619 27.414 106.619 29.976 97.518 29.976z"/>
                <mask id="yon7mg7dqb" fill="#fff">
                    <use xlink:href="#l6o13qrksa"/>
                </mask>
                <path fill="#FFF" d="M42.271 3.091L45.362 3.091 45.362 0 42.271 0zM45.3 8.63V6.122h-3.093c-6.83 0-12.366 5.539-12.366 12.371 0 6.831 5.536 12.37 12.366 12.37H45.3v-3.093h3.092V24.68h3.093V12.308H48.39V9.215h-3.092V8.63z" mask="url(#yon7mg7dqb)"/>
                <path fill="#FFF" d="M48.391 9.214L51.483 9.214 51.483 6.123 48.391 6.123zM51.483 6.122L54.574 6.122 54.574 3.031 51.483 3.031z" mask="url(#yon7mg7dqb)"/>
            </g>
        </g>
    </g>
</svg>
