<svg xmlns="http://www.w3.org/2000/svg" xmlns:xlink="http://www.w3.org/1999/xlink" width="122" height="31" viewBox="0 0 122 31">
    <defs>
        <path id="29yny14mla" d="M0 0.02L28.98 0.02 28.98 23.222 0 23.222z"/>
        <path id="fizzpomnzc" d="M0 30.865L121.897 30.865 121.897 0 0 0z"/>
    </defs>
    <g fill="none" fill-rule="evenodd">
        <g>
            <g transform="translate(-30 -13) translate(30 13)">
                <g transform="translate(0 6.754)">
                    <mask id="guwkiyz7ab" fill="#fff">
                        <use xlink:href="#29yny14mla"/>
                    </mask>
                    <path fill="#000" d="M0 20.66h2.892L4.37 2.55H1.413V.02h6.571l5.947 14.132c.362.953.526 1.676.526 1.676h.066s.164-.723.526-1.676L20.996.02h6.57v2.53H24.61l1.478 18.11h2.892v2.562h-8.938V20.66h2.794L21.784 6.79c-.032-.723.099-1.906.099-1.906h-.099S21.522 6 21.26 6.658L15.935 18.85h-2.89L7.72 6.658C7.458 6 7.196 4.884 7.196 4.884h-.099s.131 1.183.099 1.907L6.144 20.66h2.793v2.562H0V20.66z" mask="url(#guwkiyz7ab)"/>
                </g>
                <path fill="#000" d="M66.01 17.915c2.53 0 4.206-1.644 4.206-4.371 0-1.807-.723-3.057-2.169-3.649-.755-.295-1.741-.426-2.858-.426h-3.845v8.446h4.666zm-10.843 9.5h2.892V9.304h-2.892V6.773h10.055c1.642 0 2.99.066 4.27.492 2.433.822 4.043 2.86 4.043 6.015 0 3.352-1.84 5.752-4.797 6.508v.064s.591.33.985 1.086l3.286 5.718c.36.624.788.757 1.61.757h.69v2.563h-1.972c-1.97 0-2.43-.361-3.22-1.742l-3.58-6.344c-.593-.985-1.02-1.28-2.432-1.28h-2.76v6.803h2.859v2.563h-9.037v-2.563zM77.41 27.414L80.302 27.414 80.302 9.304 77.41 9.304 77.41 6.774 94.2 6.774 94.2 12.163 91.341 12.163 91.341 9.47 83.588 9.47 83.588 16.929 91.801 16.929 91.801 19.624 83.588 19.624 83.588 27.281 91.9 27.281 91.9 24.488 94.759 24.488 94.759 29.976 77.41 29.976zM97.518 27.414L100.409 27.414 100.409 9.304 97.518 9.304 97.518 6.774 106.619 6.774 106.619 9.304 103.694 9.304 103.694 17.028 115.72 17.028 115.72 9.304 112.796 9.304 112.796 6.774 121.897 6.774 121.897 9.304 119.005 9.304 119.005 27.414 121.897 27.414 121.897 29.976 112.796 29.976 112.796 27.414 115.72 27.414 115.72 19.723 103.694 19.723 103.694 27.414 106.619 27.414 106.619 29.976 97.518 29.976z"/>
                <mask id="ugt7shtspd" fill="#fff">
                    <use xlink:href="#fizzpomnzc"/>
                </mask>
                <path fill="#FF5700" d="M42.271 3.092L45.362 3.092 45.362 0 42.271 0zM45.3 8.63V6.122h-3.093c-6.83 0-12.366 5.539-12.366 12.371 0 6.831 5.536 12.371 12.366 12.371H45.3v-3.093h3.092v-3.093h3.093V12.308H48.39V9.215h-3.092V8.63z" mask="url(#ugt7shtspd)"/>
                <path fill="#FF5700" d="M48.391 9.215L51.483 9.215 51.483 6.123 48.391 6.123zM51.483 6.122L54.574 6.122 54.574 3.031 51.483 3.031z" mask="url(#ugt7shtspd)"/>
            </g>
        </g>
    </g>
</svg>
