<?xml version="1.0" encoding="utf-8"?>
<!-- Generator: Adobe Illustrator 25.2.2, SVG Export Plug-In . SVG Version: 6.00 Build 0)  -->
<svg version="1.1" id="Layer_1" xmlns="http://www.w3.org/2000/svg" xmlns:xlink="http://www.w3.org/1999/xlink" x="0px" y="0px"
	 width="39px" height="35px" viewBox="0 0 39 35" style="enable-background:new 0 0 39 35;" xml:space="preserve">
<g id="Nvidia_Logo">
	<g id="Nvidia-Horizontal-Logo.wine">
		<path id="Shape" d="M32,5.6V5.4h0.1c0,0,0.1,0,0.1,0.1S32.1,5.6,32,5.6L32,5.6 M32,5.6L32,5.6l0.2,0.2h0.1l-0.1-0.2
			c0.1,0,0.1,0,0.1-0.1l0,0c0-0.1-0.1-0.1-0.2-0.1h-0.2v0.5H32L32,5.6 M32.5,5.6c0-0.3-0.2-0.4-0.4-0.4s-0.4,0.2-0.4,0.4
			c0,0.3,0.2,0.4,0.4,0.4S32.5,5.8,32.5,5.6 M32.4,5.6c0,0.2-0.1,0.3-0.3,0.3l0,0c-0.2,0-0.3-0.1-0.3-0.3s0.1-0.3,0.3-0.3
			C32.2,5.2,32.4,5.4,32.4,5.6L32.4,5.6L32.4,5.6z M16.8,1v4.8h1.3V1H16.8z M6.5,1v4.9h1.3V2.1h1c0.3,0,0.6,0.1,0.7,0.3
			C9.7,2.6,9.8,3,9.8,3.7v2.2h1.3V3.2C11.1,1.3,9.9,1,8.8,1H6.5z M19,1v4.8h2.1c1.1,0,1.5-0.2,1.9-0.6c0.3-0.3,0.5-1,0.5-1.7
			s-0.2-1.3-0.4-1.7C22.6,1.1,21.9,1,20.8,1H19z M20.3,2.1h0.6c0.8,0,1.4,0.4,1.4,1.4s-0.5,1.4-1.4,1.4h-0.6V2.1z M14.9,1l-1.1,3.8
			l-1-3.8h-1.4l1.5,4.8h1.9L16.3,1H14.9z M24.1,5.9h1.3V1h-1.3V5.9z M27.8,1L26,5.8h1.3L27.5,5h2.2L30,5.9h1.4L29.5,1H27.8z
			 M28.6,1.9l0.8,2.3h-1.6L28.6,1.9z"/>
	</g>
</g>
</svg>
