<?xml version="1.0" encoding="utf-8"?>
<!-- Generator: Adobe Illustrator 25.2.2, SVG Export Plug-In . SVG Version: 6.00 Build 0)  -->
<svg version="1.1" id="Layer_1" xmlns="http://www.w3.org/2000/svg" xmlns:xlink="http://www.w3.org/1999/xlink" x="0px" y="0px"
	 width="26px" height="7px" viewBox="0 0 26 7" style="enable-background:new 0 0 26 7;" xml:space="preserve">
<g id="Nvidia_Logo">
	<g id="Nvidia-Horizontal-Logo.wine">
		<path id="Shape" d="M25.5,5.6V5.4h0.1c0,0,0.1,0,0.1,0.1S25.6,5.6,25.5,5.6L25.5,5.6 M25.5,5.6L25.5,5.6l0.2,0.2h0.1l-0.1-0.2
			c0.1,0,0.1,0,0.1-0.1v0c0-0.1-0.1-0.1-0.2-0.1h-0.2v0.5h0.1V5.6 M26,5.6c0-0.3-0.2-0.4-0.4-0.4c-0.2,0-0.4,0.2-0.4,0.4
			c0,0.3,0.2,0.4,0.4,0.4C25.8,6,26,5.8,26,5.6 M25.9,5.6c0,0.2-0.1,0.3-0.3,0.3h0c-0.2,0-0.3-0.1-0.3-0.3s0.1-0.3,0.3-0.3
			C25.7,5.2,25.9,5.4,25.9,5.6C25.9,5.6,25.9,5.6,25.9,5.6L25.9,5.6z M10.3,1v4.8h1.3V1H10.3z M0,1v4.9h1.3V2.1l1,0
			c0.3,0,0.6,0.1,0.7,0.3C3.3,2.6,3.4,3,3.4,3.6v2.2h1.3V3.2C4.7,1.3,3.5,1,2.4,1H0z M12.5,1v4.8h2.1c1.1,0,1.5-0.2,1.9-0.6
			c0.3-0.3,0.5-1,0.5-1.7c0-0.7-0.2-1.3-0.4-1.7C16.1,1.1,15.4,1,14.3,1H12.5z M13.8,2.1h0.6c0.8,0,1.4,0.4,1.4,1.4
			s-0.5,1.4-1.4,1.4h-0.6V2.1z M8.4,1L7.4,4.8L6.3,1H4.9l1.5,4.8h1.9L9.8,1H8.4z M17.6,5.9h1.3V1h-1.3V5.9z M21.3,1l-1.8,4.8h1.3
			L21,5h2.2l0.3,0.9h1.4L23,1H21.3z M22.1,1.9l0.8,2.3h-1.6L22.1,1.9z"/>
	</g>
</g>
</svg>
